<svg width="140" height="51" viewBox="0 0 140 51" fill="none" xmlns="http://www.w3.org/2000/svg">
<path d="M127.273 0C134.302 0 140 5.69803 140 12.7266V38.1787C140 45.2072 134.302 50.9053 127.273 50.9053H12.7266C5.69803 50.9053 0 45.2072 0 38.1787V12.7266C0 5.69803 5.69803 0 12.7266 0H127.273Z" fill="#063423"/>
<g clip-path="url(#clip0_72_34)">
<path d="M37 17.7056C37 13.4616 33.5574 10.0088 29.3226 10.0016C29.3226 10.0016 29.3178 10.0016 29.3162 10.0016C29.3146 10.0016 29.3114 10.0016 29.3098 10.0016C29.3066 10.0016 29.3042 10.0016 29.301 10.0016C27.9362 9.97924 26.6042 10.1864 25.3457 10.6176C22.6074 11.5536 20.2173 13.5768 18.6169 16.3152C15.8779 21 16.575 26.748 18.6473 31.2224L12 40.4656H13.8878L19.4355 32.752C19.79 33.3712 20.1686 33.9568 20.5662 34.4992C22.3063 36.8704 24.3858 38.4064 25.8232 39.2776C30.2681 41.9704 35.993 42.0008 36.2342 42.0008H37V30.4832H30.0772V25.372C33.959 24.9848 37 21.6952 37 17.7064V17.7056ZM19.6934 29.7656C18.0691 25.7368 17.7249 20.8752 19.9378 17.0896C20.6709 15.8368 21.5868 14.756 22.6313 13.8904C21.9877 15.016 21.618 16.3176 21.618 17.7048C21.618 19.9984 22.625 22.06 24.2173 23.472L19.6926 29.7648L19.6934 29.7656ZM28.544 38.9256C27.8843 38.6544 27.2335 38.3376 26.6146 37.9624C25.2962 37.164 23.3908 35.756 21.7992 33.5888C21.4383 33.0976 21.0981 32.5712 20.7803 32.0168H28.544V38.9256ZM28.544 30.4824H21.0662L25.4607 24.3712C26.3846 24.9088 27.4292 25.26 28.544 25.3712V30.4824ZM28.544 23.8216C27.7622 23.724 27.0243 23.4832 26.3607 23.12L28.544 20.0848V23.8224V23.8216ZM35.4667 32.0168V40.4336C34.3831 40.3664 32.2852 40.1496 30.0764 39.4704V32.0168H35.4667ZM25.1213 22.216C23.9123 21.0888 23.1504 19.4864 23.1504 17.7048C23.1504 14.3032 25.9127 11.536 29.3082 11.536C32.7037 11.536 35.4659 14.3032 35.4659 17.7048C35.4659 20.8456 33.1094 23.4408 30.0756 23.8208V15.3256L25.1213 22.216Z" fill="white"/>
</g>
<path d="M67.125 36H65.375H63.625H61.875H60.125H58.375H56.625H54.875H53.125V34.25V32.5V30.75V29V27.25V25.5V23.75V22V20.25V18.5V16.75V15H54.875H56.625V16.75V18.5V20.25V22V23.75V25.5V27.25V29V30.75V32.5H58.375H60.125H61.875H63.625H65.375H67.125H68.875V34.25V36H67.125ZM84.625 36H82.875V34.25V32.5V30.75V29V27.25V25.5H81.125H79.375H77.625H75.875H74.125V27.25V29V30.75V32.5V34.25V36H72.375H70.625V34.25V32.5V30.75V29V27.25V25.5V23.75V22V20.25V18.5H72.375H74.125V20.25V22H75.875H77.625H79.375H81.125H82.875V20.25V18.5H84.625H86.375V20.25V22V23.75V25.5V27.25V29V30.75V32.5V34.25V36H84.625ZM82.875 18.5H81.125H79.375H77.625H75.875H74.125V16.75V15H75.875H77.625H79.375H81.125H82.875V16.75V18.5ZM100.375 36H98.625H96.875H95.125H93.375H91.625H89.875H88.125V34.25V32.5V30.75V29V27.25V25.5V23.75V22V20.25V18.5V16.75V15H89.875H91.625H93.375H95.125H96.875H98.625H100.375H102.125V16.75V18.5H103.875H105.625V20.25V22V23.75H103.875H102.125V22V20.25V18.5H100.375H98.625H96.875H95.125H93.375H91.625V20.25V22V23.75H93.375H95.125H96.875H98.625H100.375H102.125V25.5V27.25H103.875H105.625V29V30.75V32.5H103.875H102.125V30.75V29V27.25H100.375H98.625H96.875H95.125H93.375H91.625V29V30.75V32.5H93.375H95.125H96.875H98.625H100.375H102.125V34.25V36H100.375ZM117.875 36H116.125H114.375H112.625H110.875H109.125H107.375V34.25V32.5H109.125H110.875H112.625H114.375H116.125H117.875H119.625V34.25V36H117.875ZM119.625 32.5V30.75V29V27.25V25.5H121.375H123.125V27.25V29V30.75V32.5H121.375H119.625ZM119.625 25.5H117.875H116.125H114.375H112.625H110.875V23.75V22H112.625H114.375H116.125H117.875H119.625V23.75V25.5ZM110.875 22H109.125H107.375V20.25V18.5H109.125H110.875V20.25V22ZM121.375 18.5H119.625H117.875H116.125H114.375H112.625H110.875V16.75V15H112.625H114.375H116.125H117.875H119.625H121.375H123.125V16.75V18.5H121.375Z" fill="white"/>
<defs>
<clipPath id="clip0_72_34">
<rect width="25" height="32" fill="white" transform="translate(12 10)"/>
</clipPath>
</defs>
</svg>
